<svg width="44" height="44" viewBox="0 0 44 44" fill="none" xmlns="http://www.w3.org/2000/svg">
<path d="M0 -3.8466e-06C-5.05143e-07 5.77816 1.13809 11.4997 3.3493 16.8381C5.56051 22.1764 8.80152 27.0269 12.8873 31.1127C16.9731 35.1985 21.8236 38.4395 27.1619 40.6507C32.5003 42.8619 38.2218 44 44 44L44 43.5623C38.2793 43.5623 32.6147 42.4355 27.3294 40.2463C22.0442 38.0571 17.242 34.8483 13.1968 30.8032C9.15171 26.758 5.94293 21.9558 3.75373 16.6706C1.56452 11.3853 0.437747 5.72067 0.437748 -3.80833e-06L0 -3.8466e-06Z" fill="#C2E9FF"/>
</svg>
